<svg xmlns="http://www.w3.org/2000/svg" width="130" height="22" viewBox="0 0 130 22" fill="none"><path d="M11 0L13.4697 7.60081H21.4616L14.996 12.2984L17.4656 19.8992L11 15.2016L4.53436 19.8992L7.00402 12.2984L0.538379 7.60081H8.53035L11 0Z" fill="#416CFC"></path><path d="M38 0L40.4697 7.60081H48.4616L41.996 12.2984L44.4656 19.8992L38 15.2016L31.5344 19.8992L34.004 12.2984L27.5384 7.60081H35.5303L38 0Z" fill="#416CFC"></path><path d="M65 0L67.4697 7.60081H75.4616L68.996 12.2984L71.4656 19.8992L65 15.2016L58.5344 19.8992L61.004 12.2984L54.5384 7.60081H62.5303L65 0Z" fill="#416CFC"></path><path d="M92 0L94.4697 7.60081H102.462L95.996 12.2984L98.4656 19.8992L92 15.2016L85.5344 19.8992L88.004 12.2984L81.5384 7.60081H89.5303L92 0Z" fill="#416CFC"></path><path d="M119 0L121.47 7.60081H129.462L122.996 12.2984L125.466 19.8992L119 15.2016L112.534 19.8992L115.004 12.2984L108.538 7.60081H116.53L119 0Z" fill="#416CFC"></path></svg>