<svg xmlns="http://www.w3.org/2000/svg" width="101" height="18" viewBox="0 0 101 18" fill="none"><path d="M8.63179 0L10.5697 5.96442L16.8411 5.96442L11.7675 9.65064L13.7054 15.6151L8.63179 11.9288L3.55815 15.6151L5.49611 9.65064L0.42247 5.96442L6.69383 5.96442L8.63179 0Z" fill="#416CFC"></path><path d="M29.5659 0L31.5038 5.96442L37.7752 5.96442L32.7016 9.65064L34.6395 15.6151L29.5659 11.9288L24.4922 15.6151L26.4302 9.65064L21.3566 5.96442L27.6279 5.96442L29.5659 0Z" fill="#416CFC"></path><path d="M50.5001 0L52.438 5.96442L58.7094 5.96442L53.6358 9.65064L55.5737 15.6151L50.5001 11.9288L45.4264 15.6151L47.3644 9.65064L42.2908 5.96442L48.5621 5.96442L50.5001 0Z" fill="#416CFC"></path><path d="M71.4342 0L73.3721 5.96442L79.6435 5.96442L74.5698 9.65064L76.5078 15.6151L71.4342 11.9288L66.3605 15.6151L68.2985 9.65064L63.2248 5.96442L69.4962 5.96442L71.4342 0Z" fill="#416CFC"></path><path d="M92.3682 1.61804L93.8307 6.11893L93.9429 6.46442H94.3062L99.0387 6.46442L95.21 9.24613L94.9161 9.45965L95.0284 9.80514L96.4908 14.306L92.6621 11.5243L92.3682 11.3108L92.0743 11.5243L88.2457 14.306L89.7081 9.80514L89.8203 9.45965L89.5265 9.24613L85.6978 6.46442L90.4303 6.46442H90.7936L90.9058 6.11893L92.3682 1.61804Z" stroke="#416CFC"></path></svg>